<svg id="armenia" xmlns="http://www.w3.org/2000/svg" width="16" height="16" viewBox="0 0 16 16">
  <path id="Контур_2087" data-name="Контур 2087" d="M16,158.956a7.982,7.982,0,0,0-.5-2.783L8,155.826l-7.5.348a8.029,8.029,0,0,0,0,5.565l7.5.348,7.5-.348A7.982,7.982,0,0,0,16,158.956Z" transform="translate(0 -150.956)" fill="#0052b4"/>
  <path id="Контур_2088" data-name="Контур 2088" d="M23.425,350.26a8,8,0,0,0,7.5-5.217h-15A8,8,0,0,0,23.425,350.26Z" transform="translate(-15.425 -334.26)" fill="#ff9811"/>
  <path id="Контур_2089" data-name="Контур 2089" d="M15.923,5.217h15a8,8,0,0,0-15,0Z" transform="translate(-15.425)" fill="#d80027"/>
</svg>
