<svg xmlns="http://www.w3.org/2000/svg" width="16" height="16" viewBox="0 0 16 16">
  <g id="china" transform="translate(0.024)">
    <circle id="Эллипс_1209" data-name="Эллипс 1209" cx="8" cy="8" r="8" transform="translate(-0.024)" fill="#d80027"/>
    <g id="Сгруппировать_1334" data-name="Сгруппировать 1334" transform="translate(1.072 3.254)">
      <path id="Контур_2116" data-name="Контур 2116" d="M.16,296.8l.628,2.084H2.82l-1.643,1.29.628,2.084L.16,300.971l-1.645,1.287.631-2.084-1.645-1.29H-.468Z" transform="translate(2.5 -295.547)" fill="#ffda44"/>
      <path id="Контур_2117" data-name="Контур 2117" d="M211.459,469.548l-.48-.637-.71.3.412-.69-.48-.641.736.211.415-.69.04.821.739.211-.713.294Z" transform="translate(-204.156 -460.918)" fill="#ffda44"/>
      <path id="Контур_2118" data-name="Контур 2118" d="M274.6,411.456l.227-.785-.622-.475.762-.012.224-.785.247.778.762-.009-.611.49.244.778-.622-.475Z" transform="translate(-266.337 -404.696)" fill="#ffda44"/>
      <path id="Контур_2119" data-name="Контур 2119" d="M273.065,322.89l-.335.739.546.573-.753-.116-.335.736-.131-.809-.756-.116.676-.383-.131-.812.546.573Z" transform="translate(-263.519 -320.653)" fill="#ffda44"/>
      <path id="Контур_2120" data-name="Контур 2120" d="M211.187,255.9l-.057.818.708.31-.742.2-.054.821-.4-.7-.742.2.492-.628-.4-.7.708.31Z" transform="translate(-203.864 -255.9)" fill="#ffda44"/>
    </g>
  </g>
</svg>
