<svg xmlns="http://www.w3.org/2000/svg" width="11.772" height="10.595" viewBox="0 0 11.772 10.595">
  <g id="f-icon-six" opacity="0.4">
    <path id="Контур_2112" data-name="Контур 2112" d="M13.772,13.6a2.252,2.252,0,0,1-1.283-.377,1.1,1.1,0,0,0-.677-.212,1.057,1.057,0,0,0-.677.212,2.374,2.374,0,0,1-2.566,0,1.1,1.1,0,0,0-.677-.212,1.057,1.057,0,0,0-.677.212,2.29,2.29,0,0,1-1.289.377,2.252,2.252,0,0,1-1.283-.377,1.069,1.069,0,0,0-.677-.212,1.069,1.069,0,0,0-.677.212A2.29,2.29,0,0,1,2,13.6V12.418a1.057,1.057,0,0,0,.677-.212,2.29,2.29,0,0,1,1.289-.377,2.252,2.252,0,0,1,1.283.377,1.057,1.057,0,0,0,.677.212,1.057,1.057,0,0,0,.677-.212,2.29,2.29,0,0,1,1.289-.377,2.252,2.252,0,0,1,1.283.377,1.1,1.1,0,0,0,.677.212,1.069,1.069,0,0,0,.677-.212,2.374,2.374,0,0,1,2.566,0,1.057,1.057,0,0,0,.677.212V13.6Zm0-2.649a2.252,2.252,0,0,1-1.283-.377,1.1,1.1,0,0,0-.677-.212,1.057,1.057,0,0,0-.677.212,2.374,2.374,0,0,1-2.566,0,1.1,1.1,0,0,0-.677-.212,1.057,1.057,0,0,0-.677.212,2.252,2.252,0,0,1-1.283.377,2.252,2.252,0,0,1-1.283-.377,1.1,1.1,0,0,0-.677-.212,1.069,1.069,0,0,0-.677.212A2.33,2.33,0,0,1,2,10.946V9.769a1.057,1.057,0,0,0,.677-.212A2.252,2.252,0,0,1,3.96,9.18a2.252,2.252,0,0,1,1.283.377,1.1,1.1,0,0,0,.677.212A1.057,1.057,0,0,0,6.6,9.557a2.374,2.374,0,0,1,2.566,0,1.1,1.1,0,0,0,.677.212,1.069,1.069,0,0,0,.677-.212,2.374,2.374,0,0,1,2.566,0,1.1,1.1,0,0,0,.677.212v1.177ZM5.926,8.3A1.057,1.057,0,0,0,6.6,8.086a2.29,2.29,0,0,1,1.289-.377,2.252,2.252,0,0,1,1.283.377,1.1,1.1,0,0,0,.677.212,1.069,1.069,0,0,0,.677-.212c.071-.041.153-.088.241-.135L6.992,4.177A3.918,3.918,0,0,0,3.766,3V4.471a2.9,2.9,0,0,1,2.354.883l.589.589L4.8,7.856a3.221,3.221,0,0,1,.453.23A1.057,1.057,0,0,0,5.926,8.3Z" transform="translate(-2 -3)"/>
    <circle id="Эллипс_1198" data-name="Эллипс 1198" cx="1.659" cy="1.659" r="1.659" transform="translate(6.636 0)"/>
  </g>
</svg>
