<svg id="facebook" xmlns="http://www.w3.org/2000/svg" width="22" height="22" viewBox="0 0 22 22">
  <path id="Контур_465" data-name="Контур 465" d="M19.25,0H2.75A2.753,2.753,0,0,0,0,2.75v16.5A2.753,2.753,0,0,0,2.75,22h16.5A2.753,2.753,0,0,0,22,19.25V2.75A2.753,2.753,0,0,0,19.25,0Z" fill="#1976d2"/>
  <path id="Контур_466" data-name="Контур 466" d="M202.313,102.875h-3.437v-2.75c0-.759.616-.687,1.375-.687h1.375V96h-2.75a4.125,4.125,0,0,0-4.125,4.125v2.75H192v3.438h2.75v7.563h4.125v-7.562h2.063Z" transform="translate(-183.75 -91.875)" fill="#fafafa"/>
</svg>
