<svg xmlns="http://www.w3.org/2000/svg" width="16" height="16.004" viewBox="0 0 16 16.004">
  <g id="iran" transform="translate(0.024)">
    <circle id="Эллипс_1210" data-name="Эллипс 1210" cx="8" cy="8" r="8" transform="translate(-0.024 0.004)" fill="#f0f0f0"/>
    <path id="Контур_2121" data-name="Контур 2121" d="M177.349,189.216h-.971c.008.115.013.231.013.348a4.2,4.2,0,0,1-.492,2.058,1.849,1.849,0,0,1-.476.554v-2.961h-.968v2.961a1.85,1.85,0,0,1-.476-.554,4.2,4.2,0,0,1-.492-2.058c0-.117,0-.233.013-.348h-.971q-.009.172-.01.348c0,2.146,1.063,3.827,2.419,3.827s2.419-1.681,2.419-3.827C177.359,189.447,177.356,189.331,177.349,189.216Z" transform="translate(-166.868 -183.302)" fill="#d80027"/>
    <path id="Контур_2122" data-name="Контур 2122" d="M27.966,3.827h1.066v.7H30.1v-.7h1.066v.7h1.066v-.7h1.066v.7h1.066v-.7h1.066v.7h1.066v-.7h1.066v.7h2.564a8.25,8.25,0,0,0-14.72,0h2.564Z" transform="translate(-24.669)" fill="#6da544"/>
    <path id="Контур_2123" data-name="Контур 2123" d="M37.558,367.3v.7H36.492v-.7H35.426v.7H34.361v-.7H33.295v.7H32.229v-.7H31.163v.7H30.1v-.7H29.032v.7H27.966v-.7H25.4a8.25,8.25,0,0,0,14.72,0Z" transform="translate(-24.669 -355.823)" fill="#d80027"/>
  </g>
</svg>
