<svg xmlns="http://www.w3.org/2000/svg" width="12" height="12.337" viewBox="0 0 12 12.337">
  <path id="profilte-item-icon-three" d="M12.855,8.773a4.253,4.253,0,0,0,0-1.209l1.3-1.018a.311.311,0,0,0,.074-.395L13,4.017a.31.31,0,0,0-.376-.136L11.085,4.5a4.507,4.507,0,0,0-1.042-.6L9.808,2.259A.3.3,0,0,0,9.506,2H7.038a.3.3,0,0,0-.3.259L6.5,3.894a4.739,4.739,0,0,0-1.042.6L3.923,3.881a.3.3,0,0,0-.376.136L2.313,6.151a.3.3,0,0,0,.074.395l1.3,1.018a4.892,4.892,0,0,0-.043.6,4.892,4.892,0,0,0,.043.6l-1.3,1.018a.311.311,0,0,0-.074.395L3.547,12.32a.31.31,0,0,0,.376.136l1.536-.617a4.507,4.507,0,0,0,1.042.6l.234,1.635a.3.3,0,0,0,.3.259H9.506a.3.3,0,0,0,.3-.259l.234-1.635a4.739,4.739,0,0,0,1.042-.6l1.536.617A.3.3,0,0,0,13,12.32l1.234-2.134a.311.311,0,0,0-.074-.395ZM8.272,10.327a2.159,2.159,0,1,1,2.159-2.159A2.161,2.161,0,0,1,8.272,10.327Z" transform="translate(-2.271 -2)" opacity="0.4"/>
</svg>
