<svg xmlns="http://www.w3.org/2000/svg" xmlns:xlink="http://www.w3.org/1999/xlink" width="16" height="16" viewBox="0 0 16 16">
  <defs>
    <clipPath id="clip-path">
      <rect id="Прямоугольник_526" data-name="Прямоугольник 526" width="16" height="16" fill="#fff"/>
    </clipPath>
  </defs>
  <g id="settings" clip-path="url(#clip-path)">
    <path id="ic_settings_24px" d="M14.619,9.9a5.608,5.608,0,0,0,.05-.705,5.608,5.608,0,0,0-.05-.705L16.138,7.3a.363.363,0,0,0,.086-.461l-1.439-2.49a.362.362,0,0,0-.439-.158l-1.792.72a5.258,5.258,0,0,0-1.216-.705L11.064,2.3a.351.351,0,0,0-.353-.3H7.833a.351.351,0,0,0-.353.3L7.207,4.209a5.529,5.529,0,0,0-1.216.705L4.2,4.195a.351.351,0,0,0-.439.158L2.321,6.843a.355.355,0,0,0,.086.461L3.925,8.491a5.707,5.707,0,0,0-.05.705,5.707,5.707,0,0,0,.05.705L2.407,11.089a.363.363,0,0,0-.086.461L3.76,14.04A.362.362,0,0,0,4.2,14.2l1.792-.72a5.258,5.258,0,0,0,1.216.705L7.48,16.09a.351.351,0,0,0,.353.3h2.879a.351.351,0,0,0,.353-.3l.273-1.907a5.529,5.529,0,0,0,1.216-.705l1.792.72a.351.351,0,0,0,.439-.158l1.439-2.49a.363.363,0,0,0-.086-.461ZM9.272,11.715A2.519,2.519,0,1,1,11.791,9.2,2.521,2.521,0,0,1,9.272,11.715Z" transform="translate(-1.271 -1)" opacity="0.4"/>
  </g>
</svg>
