<svg xmlns="http://www.w3.org/2000/svg" width="18" height="14.973" viewBox="0 0 18 14.973">
  <path id="twitter" d="M17.714,36.233a7.127,7.127,0,0,1-1.241.419,3.87,3.87,0,0,0,1.021-1.627h0a.2.2,0,0,0-.3-.236h0a7.162,7.162,0,0,1-1.9.784.484.484,0,0,1-.119.015.5.5,0,0,1-.332-.127,3.881,3.881,0,0,0-2.568-.969,4.149,4.149,0,0,0-1.229.19A3.76,3.76,0,0,0,8.519,37.39a4.14,4.14,0,0,0-.092,1.429.139.139,0,0,1-.035.109.144.144,0,0,1-.107.049H8.271a10.175,10.175,0,0,1-6.994-3.736h0a.2.2,0,0,0-.333.026h0a3.885,3.885,0,0,0,.631,4.717,3.478,3.478,0,0,1-.885-.343h0a.2.2,0,0,0-.3.175h0a3.886,3.886,0,0,0,2.267,3.58H2.573a3.492,3.492,0,0,1-.654-.062h0a.2.2,0,0,0-.231.261h0A3.889,3.889,0,0,0,4.76,46.239,7.161,7.161,0,0,1,.749,47.457H.3a.3.3,0,0,0-.29.224.307.307,0,0,0,.147.34,10.651,10.651,0,0,0,5.352,1.443,10.8,10.8,0,0,0,4.574-.97,10.1,10.1,0,0,0,3.347-2.508,10.994,10.994,0,0,0,2.049-3.432,10.841,10.841,0,0,0,.7-3.756v-.059a.66.66,0,0,1,.247-.514,7.67,7.67,0,0,0,1.543-1.694h0a.2.2,0,0,0-.251-.3Z" transform="translate(0 -34.491)" fill="#76a9ea"/>
</svg>
