<svg xmlns="http://www.w3.org/2000/svg" width="16" height="16" viewBox="0 0 16 16">
  <g id="united-states-of-america" transform="translate(0.001 0.001)">
    <circle id="Эллипс_1211" data-name="Эллипс 1211" cx="8" cy="8" r="8" transform="translate(-0.001 -0.001)" fill="#f0f0f0"/>
    <g id="usa" transform="translate(0.276 1.739)">
      <path id="Контур_2124" data-name="Контур 2124" d="M244.87,191.3h8.347a8.008,8.008,0,0,0-.276-2.087H244.87Z" transform="translate(-237.494 -185.043)" fill="#d80027"/>
      <path id="Контур_2125" data-name="Контур 2125" d="M244.87,57.739h7.173a8.042,8.042,0,0,0-1.846-2.087H244.87Z" transform="translate(-237.494 -55.652)" fill="#d80027"/>
      <path id="Контур_2126" data-name="Контур 2126" d="M101.624,458.087a7.965,7.965,0,0,0,4.98-1.739H96.644A7.965,7.965,0,0,0,101.624,458.087Z" transform="translate(-93.9 -443.827)" fill="#d80027"/>
      <path id="Контур_2127" data-name="Контур 2127" d="M9.718,324.869H23.368a7.952,7.952,0,0,0,.9-2.087H8.819A7.952,7.952,0,0,0,9.718,324.869Z" transform="translate(-8.819 -314.435)" fill="#d80027"/>
    </g>
    <path id="Контур_2128" data-name="Контур 2128" d="M3.706,1.249h.729l-.678.493.259.8-.678-.493-.678.493.224-.689A8.043,8.043,0,0,0,1.332,3.58h.234l-.432.314q-.1.168-.194.342l.206.634L.762,4.59q-.143.3-.262.621l.227.7h.838L.887,6.4l.259.8L.468,6.707.062,7A8.077,8.077,0,0,0,0,8H8V0A7.962,7.962,0,0,0,3.706,1.249Zm.31,5.95-.678-.493L2.659,7.2l.259-.8L2.24,5.91h.838l.259-.8.259.8h.838L3.756,6.4ZM3.756,4.072l.259.8-.678-.493-.678.493.259-.8L2.24,3.58h.838l.259-.8.259.8h.838ZM6.885,7.2l-.678-.493L5.529,7.2l.259-.8L5.11,5.91h.838l.259-.8.259.8H7.3L6.626,6.4ZM6.626,4.072l.259.8-.678-.493-.678.493.259-.8L5.11,3.58h.838l.259-.8.259.8H7.3Zm0-2.33.259.8-.678-.493-.678.493.259-.8L5.11,1.249h.838l.259-.8.259.8H7.3Z" fill="#0052b4"/>
  </g>
</svg>
