<svg xmlns="http://www.w3.org/2000/svg" width="17.803" height="15.382" viewBox="0 0 17.803 15.382">
  <path id="visibility-off" d="M9.906,6.238a4.049,4.049,0,0,1,4.048,4.048,3.929,3.929,0,0,1-.291,1.482l2.364,2.364A9.567,9.567,0,0,0,18.8,10.286,9.575,9.575,0,0,0,9.9,4.214a9.428,9.428,0,0,0-3.222.567L8.424,6.53A3.929,3.929,0,0,1,9.906,6.238Zm-8.1-2.21L3.655,5.874l.372.372A9.557,9.557,0,0,0,1,10.286a9.571,9.571,0,0,0,12.452,5.392l.34.34,2.372,2.364,1.028-1.028L2.838,3ZM6.287,8.505,7.542,9.76a2.284,2.284,0,0,0-.065.526,2.426,2.426,0,0,0,2.429,2.429,2.284,2.284,0,0,0,.526-.065l1.255,1.255a4.022,4.022,0,0,1-5.4-5.4Zm3.489-.631,2.55,2.55.016-.13A2.426,2.426,0,0,0,9.914,7.866Z" transform="translate(-1 -3)" opacity="0.4"/>
</svg>
