<svg xmlns="http://www.w3.org/2000/svg" width="14" height="14" viewBox="0 0 14 14">
  <g id="whatsapp-icon" transform="translate(-145 -387)">
    <circle id="Эллипс_1212" data-name="Эллипс 1212" cx="7" cy="7" r="7" transform="translate(145 387)" fill="#0dc268"/>
    <path id="ic_call_24px" d="M4.336,5.874A5.59,5.59,0,0,0,6.767,8.306l.812-.812a.367.367,0,0,1,.376-.089,4.209,4.209,0,0,0,1.317.21.37.37,0,0,1,.369.369V9.273a.37.37,0,0,1-.369.369A6.272,6.272,0,0,1,3,3.369.37.37,0,0,1,3.369,3H4.66a.37.37,0,0,1,.369.369,4.192,4.192,0,0,0,.21,1.317.37.37,0,0,1-.092.376Z" transform="translate(145.68 387.68)" fill="#fff"/>
  </g>
</svg>
