<svg xmlns="http://www.w3.org/2000/svg" width="10.502" height="14" viewBox="0 0 10.502 14">
  <path id="whatshot-icon" d="M10.235.67a14.107,14.107,0,0,1,.486,3.15A2.278,2.278,0,0,1,8.483,6.269,2.389,2.389,0,0,1,6.1,3.82l.02-.236A9.037,9.037,0,0,0,4,9.419a5.251,5.251,0,1,0,10.5,0A11.233,11.233,0,0,0,10.235.67ZM9.06,12.7A2.085,2.085,0,0,1,6.947,10.64,2.055,2.055,0,0,1,8.791,8.592,5.062,5.062,0,0,0,11.824,6.9a9.158,9.158,0,0,1,.387,2.652A3.151,3.151,0,0,1,9.06,12.7Z" transform="translate(-4 -0.67)" fill="#fff"/>
</svg>
