<svg id="youtube" xmlns="http://www.w3.org/2000/svg" width="20" height="13.75" viewBox="0 0 20 13.75">
  <path id="Контур_467" data-name="Контур 467" d="M19.15,81.325c-.543-.965-1.131-1.143-2.33-1.21S12.611,80,10,80s-5.626.034-6.823.114-1.786.245-2.334,1.211S0,83.949,0,86.871v.01c0,2.91.288,4.583.846,5.536s1.136,1.14,2.333,1.221,4.21.111,6.824.111,5.62-.041,6.819-.11,1.788-.256,2.33-1.221c.564-.954.849-2.626.849-5.536v-.01C20,83.949,19.715,82.289,19.15,81.325Z" transform="translate(0 -80)" fill="#f44336"/>
  <path id="Контур_468" data-name="Контур 468" d="M192,167.5V160l6.25,3.75Z" transform="translate(-184.5 -156.875)" fill="#fafafa"/>
</svg>
